G04 (created by PCBNEW (2013-may-18)-stable) date Mon 07 Apr 2014 05:19:34 PM MDT*
%MOIN*%
G04 Gerber Fmt 3.4, Leading zero omitted, Abs format*
%FSLAX34Y34*%
G01*
G70*
G90*
G04 APERTURE LIST*
%ADD10C,0.00590551*%
%ADD11C,0.015*%
%ADD12C,0.008*%
%ADD13C,0.012*%
%ADD14C,0.01125*%
%ADD15C,0.01*%
G04 APERTURE END LIST*
G54D10*
G54D11*
X20000Y-17490D02*
X20000Y-20490D01*
X20000Y-20490D02*
X25000Y-20490D01*
X25000Y-20490D02*
X25000Y-17490D01*
X25000Y-17490D02*
X20000Y-17490D01*
G54D12*
X19000Y-16500D02*
X19000Y-16300D01*
X19000Y-13500D02*
X19000Y-13700D01*
X19000Y-13700D02*
X18600Y-13700D01*
X18600Y-13700D02*
X18600Y-16300D01*
X18600Y-16300D02*
X19400Y-16300D01*
X19400Y-16300D02*
X19400Y-13700D01*
X19400Y-13700D02*
X19000Y-13700D01*
X18800Y-16300D02*
X18600Y-16100D01*
X15000Y-16500D02*
X15200Y-16500D01*
X18000Y-16500D02*
X17800Y-16500D01*
X17800Y-16500D02*
X17800Y-16100D01*
X17800Y-16100D02*
X15200Y-16100D01*
X15200Y-16100D02*
X15200Y-16900D01*
X15200Y-16900D02*
X17800Y-16900D01*
X17800Y-16900D02*
X17800Y-16500D01*
X15200Y-16300D02*
X15400Y-16100D01*
X12500Y-14000D02*
X12500Y-14200D01*
X12500Y-17000D02*
X12500Y-16800D01*
X12500Y-16800D02*
X12900Y-16800D01*
X12900Y-16800D02*
X12900Y-14200D01*
X12900Y-14200D02*
X12100Y-14200D01*
X12100Y-14200D02*
X12100Y-16800D01*
X12100Y-16800D02*
X12500Y-16800D01*
X12700Y-14200D02*
X12900Y-14400D01*
G54D13*
X13500Y-12500D02*
X17500Y-12500D01*
X17500Y-12500D02*
X17500Y-14500D01*
X17500Y-14500D02*
X13500Y-14500D01*
X13500Y-14500D02*
X13500Y-12500D01*
G54D11*
X17000Y-21500D02*
X16500Y-21500D01*
X16500Y-21500D02*
X16500Y-20500D01*
X16500Y-20500D02*
X17000Y-20500D01*
X17000Y-22000D02*
X13000Y-22000D01*
X13000Y-22000D02*
X13000Y-20000D01*
X13000Y-20000D02*
X17000Y-20000D01*
X17000Y-20000D02*
X17000Y-22000D01*
G54D13*
X12000Y-19480D02*
X12000Y-17500D01*
X12000Y-17500D02*
X13000Y-17500D01*
X13000Y-17500D02*
X13000Y-19500D01*
X13000Y-19500D02*
X12000Y-19500D01*
X12250Y-19500D02*
X12000Y-19250D01*
G54D10*
X9000Y-24500D02*
X8500Y-24500D01*
X8500Y-24500D02*
X8500Y-25000D01*
X8500Y-25000D02*
X9000Y-25000D01*
X9000Y-23500D02*
X21000Y-23500D01*
X21000Y-25500D02*
X9000Y-25500D01*
X21000Y-25500D02*
X21000Y-23500D01*
X9000Y-25500D02*
X9000Y-23500D01*
G54D13*
X20942Y-18714D02*
X21028Y-18742D01*
X21171Y-18742D01*
X21228Y-18714D01*
X21257Y-18685D01*
X21285Y-18628D01*
X21285Y-18571D01*
X21257Y-18514D01*
X21228Y-18485D01*
X21171Y-18457D01*
X21057Y-18428D01*
X21000Y-18400D01*
X20971Y-18371D01*
X20942Y-18314D01*
X20942Y-18257D01*
X20971Y-18200D01*
X21000Y-18171D01*
X21057Y-18142D01*
X21200Y-18142D01*
X21285Y-18171D01*
X21542Y-18742D02*
X21542Y-18142D01*
X21742Y-18571D01*
X21942Y-18142D01*
X21942Y-18742D01*
X22200Y-18571D02*
X22485Y-18571D01*
X22142Y-18742D02*
X22342Y-18142D01*
X22542Y-18742D01*
X22600Y-18800D02*
X23057Y-18800D01*
X23200Y-18428D02*
X23400Y-18428D01*
X23485Y-18742D02*
X23200Y-18742D01*
X23200Y-18142D01*
X23485Y-18142D01*
X24057Y-18742D02*
X23714Y-18742D01*
X23885Y-18742D02*
X23885Y-18142D01*
X23828Y-18228D01*
X23771Y-18285D01*
X23714Y-18314D01*
G54D12*
X19272Y-14845D02*
X19010Y-15011D01*
X19272Y-15130D02*
X18722Y-15130D01*
X18722Y-14940D01*
X18748Y-14892D01*
X18775Y-14869D01*
X18827Y-14845D01*
X18905Y-14845D01*
X18958Y-14869D01*
X18984Y-14892D01*
X19010Y-14940D01*
X19010Y-15130D01*
X16654Y-16772D02*
X16488Y-16510D01*
X16369Y-16772D02*
X16369Y-16222D01*
X16559Y-16222D01*
X16607Y-16248D01*
X16630Y-16275D01*
X16654Y-16327D01*
X16654Y-16405D01*
X16630Y-16458D01*
X16607Y-16484D01*
X16559Y-16510D01*
X16369Y-16510D01*
X12672Y-15345D02*
X12410Y-15511D01*
X12672Y-15630D02*
X12122Y-15630D01*
X12122Y-15440D01*
X12148Y-15392D01*
X12175Y-15369D01*
X12227Y-15345D01*
X12305Y-15345D01*
X12358Y-15369D01*
X12384Y-15392D01*
X12410Y-15440D01*
X12410Y-15630D01*
X15204Y-12161D02*
X15204Y-11761D01*
X15357Y-11761D01*
X15395Y-11780D01*
X15414Y-11800D01*
X15433Y-11838D01*
X15433Y-11895D01*
X15414Y-11933D01*
X15395Y-11952D01*
X15357Y-11971D01*
X15204Y-11971D01*
X15585Y-11800D02*
X15604Y-11780D01*
X15642Y-11761D01*
X15738Y-11761D01*
X15776Y-11780D01*
X15795Y-11800D01*
X15814Y-11838D01*
X15814Y-11876D01*
X15795Y-11933D01*
X15566Y-12161D01*
X15814Y-12161D01*
G54D14*
X17083Y-21342D02*
X17650Y-21342D01*
X17716Y-21321D01*
X17750Y-21300D01*
X17783Y-21257D01*
X17783Y-21171D01*
X17750Y-21128D01*
X17716Y-21107D01*
X17650Y-21085D01*
X17083Y-21085D01*
X17783Y-20635D02*
X17783Y-20892D01*
X17783Y-20764D02*
X17083Y-20764D01*
X17183Y-20807D01*
X17250Y-20850D01*
X17283Y-20892D01*
G54D13*
G54D15*
X14323Y-21283D02*
X14133Y-21283D01*
X14133Y-20583D01*
X14457Y-21283D02*
X14457Y-20583D01*
X14590Y-21083D01*
X14723Y-20583D01*
X14723Y-21283D01*
X14876Y-20583D02*
X15123Y-20583D01*
X14990Y-20850D01*
X15047Y-20850D01*
X15085Y-20883D01*
X15104Y-20916D01*
X15123Y-20983D01*
X15123Y-21150D01*
X15104Y-21216D01*
X15085Y-21250D01*
X15047Y-21283D01*
X14933Y-21283D01*
X14895Y-21250D01*
X14876Y-21216D01*
X15485Y-20583D02*
X15295Y-20583D01*
X15276Y-20916D01*
X15295Y-20883D01*
X15333Y-20850D01*
X15428Y-20850D01*
X15466Y-20883D01*
X15485Y-20916D01*
X15504Y-20983D01*
X15504Y-21150D01*
X15485Y-21216D01*
X15466Y-21250D01*
X15428Y-21283D01*
X15333Y-21283D01*
X15295Y-21250D01*
X15276Y-21216D01*
X15733Y-20883D02*
X15695Y-20850D01*
X15676Y-20816D01*
X15657Y-20750D01*
X15657Y-20716D01*
X15676Y-20650D01*
X15695Y-20616D01*
X15733Y-20583D01*
X15809Y-20583D01*
X15847Y-20616D01*
X15866Y-20650D01*
X15885Y-20716D01*
X15885Y-20750D01*
X15866Y-20816D01*
X15847Y-20850D01*
X15809Y-20883D01*
X15733Y-20883D01*
X15695Y-20916D01*
X15676Y-20950D01*
X15657Y-21016D01*
X15657Y-21150D01*
X15676Y-21216D01*
X15695Y-21250D01*
X15733Y-21283D01*
X15809Y-21283D01*
X15847Y-21250D01*
X15866Y-21216D01*
X15885Y-21150D01*
X15885Y-21016D01*
X15866Y-20950D01*
X15847Y-20916D01*
X15809Y-20883D01*
G54D13*
G54D12*
X11723Y-18466D02*
X11742Y-18485D01*
X11761Y-18542D01*
X11761Y-18580D01*
X11742Y-18638D01*
X11704Y-18676D01*
X11666Y-18695D01*
X11590Y-18714D01*
X11533Y-18714D01*
X11457Y-18695D01*
X11419Y-18676D01*
X11380Y-18638D01*
X11361Y-18580D01*
X11361Y-18542D01*
X11380Y-18485D01*
X11400Y-18466D01*
X11761Y-18085D02*
X11761Y-18314D01*
X11761Y-18199D02*
X11361Y-18199D01*
X11419Y-18238D01*
X11457Y-18276D01*
X11476Y-18314D01*
G54D10*
X14401Y-25239D02*
X14204Y-24957D01*
X14064Y-25239D02*
X14064Y-24648D01*
X14289Y-24648D01*
X14345Y-24676D01*
X14373Y-24704D01*
X14401Y-24760D01*
X14401Y-24845D01*
X14373Y-24901D01*
X14345Y-24929D01*
X14289Y-24957D01*
X14064Y-24957D01*
X14907Y-24845D02*
X14907Y-25239D01*
X14767Y-24620D02*
X14626Y-25042D01*
X14992Y-25042D01*
X13881Y-26239D02*
X13684Y-25957D01*
X13543Y-26239D02*
X13543Y-25648D01*
X13768Y-25648D01*
X13825Y-25676D01*
X13853Y-25704D01*
X13881Y-25760D01*
X13881Y-25845D01*
X13853Y-25901D01*
X13825Y-25929D01*
X13768Y-25957D01*
X13543Y-25957D01*
X14050Y-25648D02*
X14246Y-26239D01*
X14443Y-25648D01*
X14612Y-26070D02*
X14893Y-26070D01*
X14556Y-26239D02*
X14753Y-25648D01*
X14949Y-26239D01*
X15484Y-26239D02*
X15287Y-25957D01*
X15146Y-26239D02*
X15146Y-25648D01*
X15371Y-25648D01*
X15428Y-25676D01*
X15456Y-25704D01*
X15484Y-25760D01*
X15484Y-25845D01*
X15456Y-25901D01*
X15428Y-25929D01*
X15371Y-25957D01*
X15146Y-25957D01*
M02*
