M48
;DRILL file {Pcbnew (2013-may-18)-stable} date Tue 08 Apr 2014 09:22:23 AM MDT
;FORMAT={-:-/ absolute / inch / decimal}
FMAT,2
INCH,TZ
T1C0.030
T2C0.032
T3C0.040
T4C0.120
%
G90
G05
M72
T1
X0.05Y-0.55
X0.3Y0.8
X0.3Y0.2
X0.35Y-0.45
X0.4Y0.8
X0.4Y0.2
X0.5Y0.8
X0.5Y0.2
X0.75Y-0.55
T2
X0.15Y0.55
X0.15Y0.25
X0.15Y0.2
X0.15Y0.
X0.25Y0.
X0.25Y-0.3
X0.35Y0.
X0.35Y-0.3
X0.4Y0.3
X0.45Y0.
X0.45Y-0.3
X0.55Y0.
X0.55Y-0.3
X0.7Y0.3
X0.8Y0.6
X0.8Y0.3
T3
X0.3Y0.65
X0.3Y0.55
X0.4Y0.65
X0.4Y0.55
X0.5Y0.65
X0.5Y0.55
X0.6Y0.65
X0.6Y0.55
T4
X-0.35Y1.15
X-0.35Y-0.95
X0.75Y1.15
X0.75Y-0.95
T0
M30
